<svg id="Calque_1" data-name="Calque 1" xmlns="http://www.w3.org/2000/svg" xmlns:xlink="http://www.w3.org/1999/xlink" width="25.1" height="51.05" viewBox="0 0 25.1 51.05"><defs><style>.cls-1{fill:none;}.cls-2{fill:#fff;}.cls-3{clip-path:url(#clip-path);}.cls-4{fill:#008b54;}.cls-5{fill:#c62a20;}</style><clipPath id="clip-path" transform="translate(0 -0.07)"><path class="cls-1" d="M12.56,28.76a15.72,15.72,0,0,0,2.06-.13,10.72,10.72,0,0,0,1.72-.33A16.48,16.48,0,0,0,19.81,27V43.8l-5.11-4-2.07-1.62-1.51,1.16L5.3,43.78V27a21.42,21.42,0,0,0,5.87,1.72C11.86,28.76,12.56,28.76,12.56,28.76Z"/></clipPath></defs><path class="cls-2" d="M15.14,37.43c0-.08-.21-.72-.09-.32a2.68,2.68,0,0,1-.11-.49.84.84,0,0,1-.19-.43,7.12,7.12,0,0,1,0-1.46,2.55,2.55,0,0,1-.28-1.87v-.34a1.93,1.93,0,0,1,0-.48,12.9,12.9,0,0,1-.21-3,.81.81,0,0,1,.08-.34,13.61,13.61,0,0,1-1.8.12,15,15,0,0,1-2.91-.29,3.31,3.31,0,0,1,0,2.28h0c0,.55.24,1.06.28,1.6a12.6,12.6,0,0,1-.27,3c.26,1.52.48,3,.62,4.58l2.38-1.83,2.66,2.09a2.13,2.13,0,0,1-.06-.87c0-.28,0-.57.1-.85V38.2A6.12,6.12,0,0,1,15.14,37.43Z" transform="translate(0 -0.07)"/><g class="cls-3"><rect class="cls-4" x="3.07" y="23.29" width="8.13" height="24.88"/><rect class="cls-5" x="14.03" y="26.17" width="8.13" height="24.88"/></g><path class="cls-4" d="M25.1,12.63A12.55,12.55,0,1,0,12.54,25.17h0A12.57,12.57,0,0,0,25.1,12.63" transform="translate(0 -0.07)"/><path class="cls-2" d="M12.55,3a9.62,9.62,0,1,0,9.62,9.63A9.62,9.62,0,0,0,12.55,3Z" transform="translate(0 -0.07)"/><path class="cls-5" d="M12.55,5.55a7.08,7.08,0,1,0,7.08,7.08h0A7.08,7.08,0,0,0,12.55,5.55Z" transform="translate(0 -0.07)"/><polygon class="cls-2" points="14.87 13.39 17.25 11.12 13.99 10.66 12.55 7.7 11.12 10.66 7.85 11.12 10.23 13.39 9.65 16.63 12.55 15.08 15.45 16.63 14.87 13.39"/></svg>