<svg id="Calque_1" data-name="Calque 1" xmlns="http://www.w3.org/2000/svg" xmlns:xlink="http://www.w3.org/1999/xlink" width="25.11" height="50.98" viewBox="0 0 25.11 50.98"><defs><style>.cls-1{fill:none;}.cls-2{fill:#fff;}.cls-3{clip-path:url(#clip-path);}.cls-4{fill:#0e559e;}.cls-5{fill:#e43433;}.cls-6{fill:#175298;}.cls-7{fill:#e8cd6e;}.cls-8{clip-path:url(#clip-path-3);}.cls-9{fill:#d02e1c;}</style><clipPath id="clip-path"><path class="cls-1" d="M12.52,28.69a15.78,15.78,0,0,1-7.26-1.78v16.8l7.34-5.63,7.18,5.63V26.91a15.78,15.78,0,0,1-7.26,1.78"/></clipPath><clipPath id="clip-path-3"><path class="cls-1" d="M12.54,28.72a14.7,14.7,0,0,0,2.06-.14,15.9,15.9,0,0,0,1.72-.33,16.08,16.08,0,0,0,3.47-1.32v16.8l-5.11-4L12.61,38.1,11.1,39.26,5.28,43.73V26.93a21.45,21.45,0,0,0,5.88,1.72C11.85,28.72,12.54,28.72,12.54,28.72Z"/></clipPath></defs><path class="cls-2" d="M12.52,28.69a15.84,15.84,0,0,0,7.26-1.78v16.8L12.6,38.08,5.26,43.71V26.91a15.81,15.81,0,0,0,7.26,1.78"/><g class="cls-3"><rect class="cls-4" x="2.99" y="23.1" width="8.13" height="24.88"/></g><g class="cls-3"><rect class="cls-5" x="14.3" y="23.1" width="8.13" height="24.88"/></g><path class="cls-6" d="M12.54,0A12.56,12.56,0,1,0,25.1,12.56,12.55,12.55,0,0,0,12.54,0"/><path class="cls-2" d="M12.54,2.93a9.62,9.62,0,1,0,9.62,9.62,9.62,9.62,0,0,0-9.62-9.62"/><path class="cls-5" d="M12.54,5.47a7.08,7.08,0,1,0,7.08,7.08,7.08,7.08,0,0,0-7.08-7.08"/><polygon class="cls-2" points="14.87 13.39 17.24 11.11 13.98 10.66 12.54 7.7 11.11 10.66 7.85 11.11 10.22 13.39 9.64 16.63 12.54 15.08 15.44 16.63 14.87 13.39"/><path class="cls-7" d="M15.14,37.39c0-.08-.21-.72-.08-.32a4.21,4.21,0,0,1-.12-.48.88.88,0,0,1-.18-.44,7.17,7.17,0,0,1,0-1.46,2.67,2.67,0,0,1-.28-1.87c0-.11,0-.22,0-.33a2.63,2.63,0,0,1,0-.49A12.81,12.81,0,0,1,14.26,29a1.13,1.13,0,0,1,.08-.34,15.25,15.25,0,0,1-1.8.12,15.52,15.52,0,0,1-2.91-.29,3.36,3.36,0,0,1,0,2.28h0v0c0,.55.24,1.06.28,1.6a11.41,11.41,0,0,1-.27,3c.26,1.51.48,3,.62,4.57l2.38-1.83,2.67,2.09a1.83,1.83,0,0,1-.06-.87c0-.28,0-.57.1-.85v-.08c0-.07,0-.14,0-.21C15.26,37.92,15.21,37.65,15.14,37.39Z"/><g class="cls-8"><rect class="cls-9" x="3.01" y="23.22" width="8.13" height="24.88"/><rect class="cls-9" x="13.97" y="26.1" width="8.13" height="24.88"/></g><path class="cls-9" d="M12.56,0A12.55,12.55,0,1,0,25.11,12.58,12.55,12.55,0,0,0,12.56,0Z"/><path class="cls-7" d="M12.56,3a9.62,9.62,0,1,0,9.62,9.62A9.62,9.62,0,0,0,12.56,3Z"/><path class="cls-9" d="M12.56,5.5a7.08,7.08,0,1,0,7.08,7.08A7.08,7.08,0,0,0,12.56,5.5Z"/><polygon class="cls-7" points="14.88 13.42 17.26 11.14 14 10.69 12.56 7.73 11.12 10.69 7.86 11.14 10.23 13.42 9.66 16.66 12.56 15.11 15.46 16.66 14.88 13.42"/></svg>