<?xml version="1.0" encoding="utf-8"?>
<!-- Generator: Adobe Illustrator 25.2.3, SVG Export Plug-In . SVG Version: 6.00 Build 0)  -->
<svg version="1.1" xmlns="http://www.w3.org/2000/svg" xmlns:xlink="http://www.w3.org/1999/xlink" x="0px" y="0px" width="20.55px"
	 height="36.23px" viewBox="0 0 20.55 36.23" style="enable-background:new 0 0 20.55 36.23;" xml:space="preserve">
<style type="text/css">
	.st0{display:none;}
	.st1{display:inline;}
	.st2{fill:#FFFFFF;}
	.st3{clip-path:url(#SVGID_2_);}
	.st4{fill:#2C519C;}
	.st5{fill:#E73331;}
	.st6{fill-rule:evenodd;clip-rule:evenodd;fill:#2C519C;}
	.st7{clip-path:url(#SVGID_4_);}
	.st8{fill:#D02E1D;}
	.st9{fill:#1D539A;}
</style>
<g id="Calque_2" class="st0">
	<g class="st1">
		<g>
			
				<ellipse transform="matrix(0.7071 -0.7071 0.7071 0.7071 20.145 0.1672)" class="st2" cx="10.27" cy="-24.23" rx="66.67" ry="66.67"/>
			<g>
				<g>
					<defs>
						<path id="SVGID_1_" d="M10.25,23.8c2.12,0,4.11-0.53,5.9-1.45v13.64l-5.83-4.57l-5.95,4.57V22.35
							C6.15,23.27,8.14,23.8,10.25,23.8z"/>
					</defs>
					<clipPath id="SVGID_2_">
						<use xlink:href="#SVGID_1_"  style="overflow:visible;"/>
					</clipPath>
					<g class="st3">
						<rect x="2.52" y="19.26" class="st4" width="6.6" height="20.19"/>
						<rect x="11.7" y="19.26" class="st5" width="6.6" height="20.19"/>
					</g>
				</g>
				<g>
					<path class="st4" d="M10.27,0.41C4.65,0.41,0.08,4.97,0.08,10.6c0,5.62,4.56,10.19,10.19,10.19c5.63,0,10.19-4.57,10.19-10.19
						C20.46,4.97,15.9,0.41,10.27,0.41z"/>
					<path class="st2" d="M10.27,2.79c-4.31,0-7.81,3.5-7.81,7.81c0,4.31,3.5,7.8,7.81,7.8c4.31,0,7.81-3.49,7.81-7.8
						C18.08,6.29,14.58,2.79,10.27,2.79z"/>
					<path class="st5" d="M10.27,4.85c-3.17,0-5.75,2.58-5.75,5.75c0,3.17,2.57,5.75,5.75,5.75c3.17,0,5.75-2.58,5.75-5.75
						C16.02,7.43,13.45,4.85,10.27,4.85z"/>
					<polygon class="st2" points="12.16,11.28 14.08,9.43 11.44,9.06 10.27,6.66 9.11,9.06 6.46,9.43 8.39,11.28 7.92,13.91 
						10.27,12.65 12.63,13.91 					"/>
				</g>
			</g>
			<g>
				<g>
					<path class="st6" d="M44.29-68.35c-1.91,0.15-3.82,0.29-5.73,0.44c1.45,0.97,2.9,1.95,4.35,2.92c1.91-0.15,3.82-0.29,5.73-0.44
						C47.19-66.4,45.74-67.37,44.29-68.35L44.29-68.35z M44.61-68.82c-0.59-1.82-1.17-3.64-1.76-5.47c1.45,0.97,2.9,1.95,4.35,2.92
						c0.59,1.82,1.17,3.64,1.76,5.47C47.5-66.87,46.06-67.84,44.61-68.82L44.61-68.82z M49.65-63.78c-1.91-0.13-3.82-0.26-5.73-0.39
						c1.29,1.17,2.59,2.34,3.88,3.51c1.91,0.13,3.82,0.26,5.73,0.39C52.24-61.44,50.95-62.61,49.65-63.78L49.65-63.78z M50.03-64.2
						c-0.32-1.89-0.64-3.78-0.96-5.66c1.3,1.17,2.59,2.34,3.88,3.51c0.32,1.89,0.64,3.77,0.96,5.66
						C52.62-61.86,51.33-63.03,50.03-64.2L50.03-64.2z M54.4-58.57c-1.87-0.4-3.74-0.8-5.62-1.21c1.11,1.34,2.23,2.69,3.34,4.03
						c1.87,0.4,3.74,0.8,5.62,1.2C56.62-55.89,55.51-57.23,54.4-58.57L54.4-58.57z M54.83-58.93c-0.05-1.91-0.09-3.83-0.14-5.74
						c1.11,1.34,2.23,2.69,3.34,4.03c0.05,1.91,0.09,3.83,0.14,5.74C57.06-56.25,55.94-57.59,54.83-58.93L54.83-58.93z M58.45-52.82
						c-1.8-0.67-3.59-1.33-5.38-2c0.91,1.49,1.82,2.98,2.73,4.47c1.79,0.67,3.59,1.34,5.38,2C60.27-49.83,59.36-51.32,58.45-52.82
						L58.45-52.82z M58.94-53.11c0.23-1.9,0.46-3.8,0.69-5.7c0.91,1.49,1.82,2.98,2.72,4.47c-0.23,1.9-0.46,3.8-0.69,5.7
						C60.75-50.13,59.84-51.62,58.94-53.11L58.94-53.11z M61.7-46.6c-1.72-0.84-3.44-1.68-5.16-2.52c0.76,1.57,1.52,3.14,2.28,4.72
						c1.72,0.84,3.44,1.68,5.16,2.52C63.21-43.45,62.45-45.02,61.7-46.6L61.7-46.6z M62.2-46.84c0.41-1.87,0.83-3.74,1.24-5.61
						c0.76,1.57,1.52,3.14,2.28,4.72c-0.42,1.87-0.83,3.74-1.24,5.61C63.72-43.7,62.96-45.27,62.2-46.84L62.2-46.84z M64.14-39.99
						c-1.58-1.08-3.16-2.17-4.74-3.25c0.52,1.67,1.04,3.33,1.55,5c1.58,1.09,3.16,2.17,4.74,3.25
						C65.18-36.66,64.66-38.32,64.14-39.99L64.14-39.99z M64.68-40.16c0.69-1.79,1.37-3.58,2.05-5.36c0.52,1.67,1.04,3.33,1.56,5
						c-0.68,1.79-1.37,3.58-2.05,5.36C65.72-36.82,65.2-38.49,64.68-40.16L64.68-40.16z M65.71-33.15
						c-1.46-1.24-2.92-2.47-4.38-3.71c0.35,1.71,0.7,3.42,1.05,5.13c1.46,1.24,2.92,2.47,4.38,3.71
						C66.41-29.73,66.06-31.44,65.71-33.15L65.71-33.15z M66.26-33.26c0.86-1.71,1.72-3.42,2.58-5.13c0.35,1.71,0.7,3.42,1.05,5.13
						c-0.86,1.71-1.72,3.42-2.58,5.13C66.96-29.84,66.61-31.55,66.26-33.26L66.26-33.26z M66.38-26.14
						c-1.26-1.44-2.51-2.89-3.77-4.33c0.09,1.74,0.17,3.49,0.26,5.23c1.26,1.44,2.52,2.89,3.78,4.33
						C66.56-22.65,66.47-24.39,66.38-26.14L66.38-26.14z M66.95-26.16c1.11-1.56,2.22-3.12,3.33-4.68c0.09,1.74,0.17,3.49,0.26,5.23
						c-1.11,1.56-2.22,3.12-3.33,4.68C67.12-22.68,67.03-24.42,66.95-26.16L66.95-26.16z M66.18-19.12
						c-1.11-1.56-2.21-3.13-3.32-4.69c-0.09,1.74-0.18,3.49-0.27,5.23c1.11,1.56,2.21,3.12,3.32,4.69
						C66-15.64,66.09-17.38,66.18-19.12L66.18-19.12z M66.74-19.09c1.26-1.44,2.52-2.88,3.78-4.32c-0.09,1.74-0.18,3.49-0.27,5.23
						c-1.26,1.44-2.52,2.88-3.78,4.32C66.56-15.61,66.65-17.35,66.74-19.09L66.74-19.09z M65.07-12.16
						c-0.86-1.71-1.71-3.42-2.57-5.13c-0.35,1.71-0.7,3.42-1.06,5.13c0.86,1.71,1.72,3.42,2.57,5.13
						C64.36-8.74,64.71-10.45,65.07-12.16L65.07-12.16z M65.62-12.05c1.46-1.23,2.93-2.47,4.39-3.7c-0.35,1.71-0.71,3.42-1.06,5.13
						c-1.46,1.23-2.93,2.47-4.39,3.7C64.91-8.63,65.27-10.34,65.62-12.05L65.62-12.05z M63.09-5.4c-0.59-1.82-1.19-3.64-1.78-5.46
						c-0.6,1.64-1.21,3.28-1.81,4.91c0.59,1.82,1.19,3.64,1.78,5.46C61.88-2.12,62.48-3.76,63.09-5.4L63.09-5.4z M63.62-5.21
						c1.63-1,3.26-2,4.89-3c-0.6,1.64-1.2,3.28-1.81,4.91c-1.63,1-3.26,2-4.89,3.01C62.41-1.93,63.01-3.57,63.62-5.21L63.62-5.21z
						 M60.24,1.01C59.83-0.86,59.41-2.73,59-4.6c-0.76,1.57-1.52,3.14-2.28,4.72c0.41,1.87,0.82,3.74,1.24,5.61
						C58.72,4.15,59.48,2.58,60.24,1.01L60.24,1.01z M60.75,1.25c1.72-0.84,3.44-1.68,5.16-2.51c-0.76,1.57-1.52,3.14-2.28,4.72
						c-1.72,0.84-3.44,1.67-5.16,2.51C59.23,4.4,59.99,2.83,60.75,1.25L60.75,1.25z M56.59,7.04c-0.14-1.91-0.28-3.82-0.41-5.73
						c-0.98,1.45-1.96,2.89-2.94,4.34c0.14,1.91,0.27,3.82,0.41,5.73C54.64,9.93,55.61,8.48,56.59,7.04L56.59,7.04z M57.06,7.35
						c1.82-0.58,3.65-1.16,5.47-1.74c-0.98,1.44-1.96,2.89-2.94,4.33c-1.83,0.58-3.65,1.16-5.47,1.74
						C55.1,10.24,56.08,8.8,57.06,7.35L57.06,7.35z M52.23,12.53c0.05-1.91,0.09-3.83,0.14-5.74c-1.11,1.34-2.23,2.69-3.34,4.03
						c-0.04,1.91-0.09,3.83-0.14,5.74C50.01,15.22,51.12,13.87,52.23,12.53L52.23,12.53z M52.67,12.89c1.87-0.4,3.74-0.81,5.61-1.21
						c-1.11,1.35-2.23,2.69-3.34,4.04c-1.87,0.4-3.75,0.8-5.61,1.21C50.44,15.58,51.56,14.23,52.67,12.89L52.67,12.89z M47.17,17.43
						c0.32-1.89,0.64-3.78,0.96-5.66c-1.29,1.17-2.59,2.34-3.88,3.52c-0.32,1.89-0.64,3.77-0.96,5.66
						C44.59,19.77,45.88,18.6,47.17,17.43L47.17,17.43z M47.55,17.85c1.91-0.13,3.82-0.26,5.73-0.39c-1.3,1.17-2.59,2.34-3.88,3.51
						c-1.91,0.13-3.82,0.26-5.73,0.39C44.96,20.19,46.26,19.02,47.55,17.85L47.55,17.85z M41.54,21.65
						c0.59-1.82,1.17-3.64,1.76-5.47c-1.45,0.97-2.9,1.95-4.35,2.92c-0.58,1.82-1.17,3.65-1.76,5.47
						C38.64,23.6,40.09,22.63,41.54,21.65L41.54,21.65z M41.86,22.12c1.91,0.15,3.82,0.29,5.72,0.43c-1.45,0.97-2.9,1.95-4.34,2.92
						c-1.91-0.14-3.82-0.29-5.73-0.43C38.96,24.07,40.41,23.1,41.86,22.12L41.86,22.12z M35.44,25.12c0.76-1.76,1.52-3.51,2.28-5.27
						c-1.54,0.83-3.07,1.66-4.61,2.49c-0.76,1.76-1.52,3.51-2.28,5.27C32.37,26.78,33.91,25.95,35.44,25.12L35.44,25.12z
						 M35.71,25.62c1.89,0.33,3.77,0.66,5.66,0.99c-1.54,0.83-3.07,1.66-4.61,2.49c-1.88-0.33-3.77-0.66-5.66-0.99
						C32.64,27.27,34.17,26.44,35.71,25.62L35.71,25.62z M28.91,27.77c1.01-1.63,2.02-3.25,3.03-4.88
						c-1.64,0.59-3.28,1.19-4.92,1.79c-1.01,1.62-2.02,3.25-3.03,4.88C25.63,28.95,27.27,28.36,28.91,27.77L28.91,27.77z
						 M29.11,28.29c1.82,0.6,3.63,1.2,5.45,1.81c-1.64,0.6-3.28,1.19-4.92,1.79c-1.82-0.6-3.63-1.2-5.45-1.81
						C25.82,29.48,27.46,28.89,29.11,28.29L29.11,28.29z M38.4-70.24l-3.84-4.53l5.78,1.38l3.85,4.53L38.4-70.24L38.4-70.24z"/>
					<path class="st6" d="M-23.74-68.35c1.91,0.15,3.82,0.29,5.73,0.44c-1.45,0.97-2.9,1.95-4.35,2.92
						c-1.91-0.15-3.82-0.29-5.73-0.44C-26.64-66.4-25.19-67.37-23.74-68.35L-23.74-68.35z M-24.06-68.82
						c0.59-1.82,1.17-3.64,1.76-5.47c-1.45,0.97-2.9,1.95-4.35,2.92c-0.59,1.82-1.17,3.64-1.76,5.47
						C-26.95-66.87-25.51-67.84-24.06-68.82L-24.06-68.82z M-29.11-63.78c1.91-0.13,3.82-0.26,5.73-0.39
						c-1.29,1.17-2.59,2.34-3.88,3.51c-1.91,0.13-3.82,0.26-5.73,0.39C-31.69-61.44-30.4-62.61-29.11-63.78L-29.11-63.78z
						 M-29.48-64.2c0.32-1.89,0.64-3.78,0.96-5.66c-1.29,1.17-2.59,2.34-3.88,3.51c-0.32,1.89-0.64,3.77-0.96,5.66
						C-32.07-61.86-30.78-63.03-29.48-64.2L-29.48-64.2z M-33.85-58.57c1.87-0.4,3.74-0.8,5.62-1.21c-1.11,1.34-2.23,2.69-3.34,4.03
						c-1.87,0.4-3.74,0.8-5.62,1.2C-36.07-55.89-34.96-57.23-33.85-58.57L-33.85-58.57z M-34.28-58.93
						c0.05-1.91,0.09-3.83,0.14-5.74c-1.11,1.34-2.23,2.69-3.34,4.03c-0.05,1.91-0.09,3.83-0.14,5.74
						C-36.51-56.25-35.4-57.59-34.28-58.93L-34.28-58.93z M-37.9-52.82c1.8-0.67,3.59-1.33,5.39-2c-0.91,1.49-1.82,2.98-2.73,4.47
						c-1.79,0.67-3.59,1.34-5.38,2C-39.72-49.83-38.81-51.32-37.9-52.82L-37.9-52.82z M-38.38-53.11c-0.23-1.9-0.46-3.8-0.69-5.7
						c-0.91,1.49-1.82,2.98-2.73,4.47c0.23,1.9,0.46,3.8,0.69,5.7C-40.2-50.13-39.29-51.62-38.38-53.11L-38.38-53.11z M-41.15-46.6
						c1.72-0.84,3.44-1.68,5.16-2.52c-0.76,1.57-1.52,3.14-2.28,4.72c-1.72,0.84-3.44,1.68-5.16,2.52
						C-42.66-43.45-41.91-45.02-41.15-46.6L-41.15-46.6z M-41.65-46.84c-0.41-1.87-0.83-3.74-1.24-5.61
						c-0.76,1.57-1.52,3.14-2.28,4.72c0.41,1.87,0.83,3.74,1.24,5.61C-43.17-43.7-42.41-45.27-41.65-46.84L-41.65-46.84z
						 M-43.59-39.99c1.58-1.08,3.16-2.17,4.73-3.25c-0.52,1.67-1.04,3.33-1.56,5c-1.58,1.09-3.16,2.17-4.73,3.25
						C-44.63-36.66-44.11-38.32-43.59-39.99L-43.59-39.99z M-44.13-40.16c-0.68-1.79-1.37-3.58-2.06-5.36
						c-0.52,1.67-1.04,3.33-1.56,5c0.69,1.79,1.37,3.58,2.06,5.36C-45.17-36.82-44.65-38.49-44.13-40.16L-44.13-40.16z
						 M-45.16-33.15c1.46-1.24,2.92-2.47,4.39-3.71c-0.35,1.71-0.7,3.42-1.05,5.13c-1.46,1.24-2.92,2.47-4.39,3.71
						C-45.86-29.73-45.51-31.44-45.16-33.15L-45.16-33.15z M-45.71-33.26c-0.86-1.71-1.72-3.42-2.58-5.13
						c-0.35,1.71-0.7,3.42-1.05,5.13c0.86,1.71,1.72,3.42,2.58,5.13C-46.41-29.84-46.06-31.55-45.71-33.26L-45.71-33.26z
						 M-45.84-26.14c1.26-1.44,2.52-2.89,3.77-4.33c-0.09,1.74-0.17,3.49-0.26,5.23c-1.26,1.44-2.52,2.89-3.78,4.33
						C-46.01-22.65-45.92-24.39-45.84-26.14L-45.84-26.14z M-46.4-26.16c-1.11-1.56-2.22-3.12-3.33-4.68
						c-0.09,1.74-0.17,3.49-0.26,5.23c1.11,1.56,2.22,3.12,3.33,4.68C-46.57-22.68-46.49-24.42-46.4-26.16L-46.4-26.16z
						 M-45.63-19.12c1.1-1.56,2.21-3.13,3.31-4.69c0.09,1.74,0.18,3.49,0.27,5.23c-1.11,1.56-2.21,3.12-3.32,4.69
						C-45.45-15.64-45.54-17.38-45.63-19.12L-45.63-19.12z M-46.19-19.09c-1.26-1.44-2.52-2.88-3.79-4.32
						c0.09,1.74,0.18,3.49,0.27,5.23c1.26,1.44,2.52,2.88,3.78,4.32C-46.01-15.61-46.1-17.35-46.19-19.09L-46.19-19.09z
						 M-44.52-12.16c0.86-1.71,1.71-3.42,2.57-5.13c0.35,1.71,0.7,3.42,1.06,5.13c-0.86,1.71-1.71,3.42-2.57,5.13
						C-43.81-8.74-44.16-10.45-44.52-12.16L-44.52-12.16z M-45.07-12.05c-1.46-1.23-2.93-2.47-4.39-3.7
						c0.35,1.71,0.7,3.42,1.06,5.13c1.46,1.23,2.93,2.47,4.39,3.7C-44.37-8.63-44.72-10.34-45.07-12.05L-45.07-12.05z M-42.54-5.4
						c0.59-1.82,1.19-3.64,1.78-5.46c0.6,1.64,1.2,3.28,1.81,4.91c-0.59,1.82-1.19,3.64-1.78,5.46C-41.33-2.12-41.93-3.76-42.54-5.4
						L-42.54-5.4z M-43.07-5.21c-1.63-1-3.26-2-4.89-3c0.6,1.64,1.2,3.28,1.81,4.91c1.63,1,3.26,2,4.89,3.01
						C-41.86-1.93-42.47-3.57-43.07-5.21L-43.07-5.21z M-39.69,1.01c0.41-1.87,0.83-3.74,1.24-5.61c0.76,1.57,1.52,3.14,2.28,4.72
						c-0.41,1.87-0.83,3.74-1.24,5.61C-38.17,4.15-38.93,2.58-39.69,1.01L-39.69,1.01z M-40.2,1.25c-1.72-0.84-3.44-1.68-5.16-2.51
						c0.76,1.57,1.52,3.14,2.28,4.72c1.72,0.84,3.44,1.67,5.16,2.51C-38.68,4.4-39.44,2.83-40.2,1.25L-40.2,1.25z M-36.04,7.04
						c0.14-1.91,0.28-3.82,0.42-5.73c0.98,1.45,1.96,2.89,2.94,4.34c-0.14,1.91-0.28,3.82-0.41,5.73
						C-34.09,9.93-35.06,8.48-36.04,7.04L-36.04,7.04z M-36.51,7.35c-1.82-0.58-3.65-1.16-5.47-1.74c0.98,1.44,1.96,2.89,2.94,4.33
						c1.82,0.58,3.65,1.16,5.47,1.74C-34.55,10.24-35.53,8.8-36.51,7.35L-36.51,7.35z M-31.68,12.53c-0.05-1.91-0.09-3.83-0.14-5.74
						c1.11,1.34,2.23,2.69,3.34,4.03c0.05,1.91,0.09,3.83,0.14,5.74C-29.46,15.22-30.57,13.87-31.68,12.53L-31.68,12.53z
						 M-32.12,12.89c-1.87-0.4-3.74-0.81-5.61-1.21c1.11,1.35,2.22,2.69,3.34,4.04c1.87,0.4,3.74,0.8,5.61,1.21
						C-29.89,15.58-31.01,14.23-32.12,12.89L-32.12,12.89z M-26.63,17.43c-0.32-1.89-0.64-3.78-0.96-5.66
						c1.29,1.17,2.59,2.34,3.88,3.52c0.32,1.89,0.64,3.77,0.96,5.66C-24.04,19.77-25.33,18.6-26.63,17.43L-26.63,17.43z M-27,17.85
						c-1.91-0.13-3.82-0.26-5.73-0.39c1.29,1.17,2.59,2.34,3.88,3.51c1.91,0.13,3.82,0.26,5.73,0.39
						C-24.42,20.19-25.71,19.02-27,17.85L-27,17.85z M-20.99,21.65c-0.59-1.82-1.17-3.64-1.76-5.47c1.45,0.97,2.9,1.95,4.35,2.92
						c0.59,1.82,1.17,3.65,1.76,5.47C-18.09,23.6-19.54,22.63-20.99,21.65L-20.99,21.65z M-21.3,22.12
						c-1.91,0.15-3.82,0.29-5.73,0.43c1.45,0.97,2.9,1.95,4.35,2.92c1.91-0.14,3.82-0.29,5.72-0.43
						C-18.41,24.07-19.86,23.1-21.3,22.12L-21.3,22.12z M-14.89,25.12c-0.76-1.76-1.52-3.51-2.28-5.27
						c1.54,0.83,3.07,1.66,4.61,2.49c0.76,1.76,1.52,3.51,2.28,5.27C-11.82,26.78-13.36,25.95-14.89,25.12L-14.89,25.12z
						 M-15.16,25.62c-1.89,0.33-3.77,0.66-5.66,0.99c1.53,0.83,3.07,1.66,4.61,2.49c1.89-0.33,3.77-0.66,5.66-0.99
						C-12.09,27.27-13.62,26.44-15.16,25.62L-15.16,25.62z M-8.36,27.77c-1.01-1.63-2.02-3.25-3.03-4.88
						c1.64,0.59,3.28,1.19,4.92,1.79c1.01,1.62,2.02,3.25,3.03,4.88C-5.08,28.95-6.72,28.36-8.36,27.77L-8.36,27.77z M-8.56,28.29
						c-1.81,0.6-3.63,1.2-5.45,1.81c1.64,0.6,3.28,1.19,4.92,1.79c1.82-0.6,3.63-1.2,5.45-1.81C-5.27,29.48-6.91,28.89-8.56,28.29
						L-8.56,28.29z M-17.85-70.24l3.85-4.53l-5.78,1.38l-3.85,4.53L-17.85-70.24L-17.85-70.24z"/>
				</g>
			</g>
		</g>
	</g>
</g>
<g id="Calque_1">
	<g>
		<path class="st2" d="M12.39,31.03c-0.02-0.07-0.17-0.59-0.07-0.26c-0.04-0.13-0.07-0.26-0.1-0.4c-0.07-0.1-0.13-0.21-0.15-0.36
			c-0.06-0.41-0.05-0.8-0.04-1.19c-0.26-0.44-0.34-1-0.23-1.53c0-0.09,0.02-0.18,0.03-0.27c-0.02-0.13-0.03-0.26-0.03-0.4
			c-0.16-0.83-0.18-1.6-0.15-2.5c0-0.11,0.03-0.19,0.07-0.28c-0.48,0.06-0.97,0.1-1.47,0.1c-0.81,0-1.61-0.09-2.38-0.24
			c0.26,0.47,0.16,1.21-0.02,1.87c0,0,0,0,0,0.01c0,0.01,0,0.01,0,0.02c0.02,0.45,0.2,0.86,0.23,1.31c0.06,0.81-0.06,1.65-0.22,2.47
			c0.21,1.24,0.39,2.48,0.51,3.74l1.95-1.49l2.18,1.71c-0.07-0.23-0.09-0.47-0.05-0.71c0.04-0.23,0.04-0.47,0.08-0.7
			c0-0.03,0-0.05,0-0.07c-0.01-0.06-0.01-0.12-0.02-0.17C12.49,31.47,12.44,31.25,12.39,31.03z"/>
		<g>
			<defs>
				<path id="SVGID_3_" d="M10.26,23.94c0.66,0,1.23-0.05,1.69-0.11c0.23-0.03,0.76-0.11,1.41-0.27c0.7-0.17,1.69-0.49,2.84-1.08
					v13.75c-1.4-1.09-2.79-2.19-4.19-3.28c-0.56-0.44-1.13-0.88-1.69-1.33c0,0-1.23,0.95-1.24,0.95c-0.04,0.03-4.73,3.63-4.77,3.66
					c0-4.58,0-9.17,0-13.75c2.07,0.89,3.81,1.32,4.81,1.41C9.69,23.94,10.26,23.94,10.26,23.94z"/>
			</defs>
			<clipPath id="SVGID_4_">
				<use xlink:href="#SVGID_3_"  style="overflow:visible;"/>
			</clipPath>
			<g class="st7">
				<path class="st8" d="M2.46,19.44v0.47c0.67,0.09,1.29,0.57,1.32,1.43c0.11,3.04-0.15,6.4-1.15,9.41
					c0.02,0.74-0.05,1.45-0.17,2.14v3.05c0.74,0.31,1.27,0.86,2.07,1.4c1.09,0.73,2.77-0.54,3.42-1.48
					c0.29-0.42,0.72-0.64,1.16-0.69V19.44H2.46z"/>
				<path class="st9" d="M15.29,38.93c0.01-0.02,0.01-0.04,0.02-0.06c-0.01-0.18,0.01-0.37,0.1-0.58c0.25-0.59,0.66-1.04,1.02-1.52
					c0.14-0.6,0.16-1.46,0.23-1.8c0.28-1.49,0.88-2.87,0.89-4.41c0.01-0.51,0.22-0.88,0.53-1.12v-7.65h-6.65v15.05
					c0.02-0.07,0.03-0.15,0.05-0.22c0.5-1.87,3.39-1.07,2.89,0.8c-0.32,1.21-0.33,2.42-0.33,3.67c0,0.48-0.19,0.84-0.46,1.08h4.51
					V41.4c-0.68,0.15-1.36,0.21-1.87,0.22C14.67,41.63,14.36,39.71,15.29,38.93z"/>
			</g>
		</g>
		<g>
			<path class="st8" d="M10.27,0.45C4.6,0.45,0,5.06,0,10.73C0,16.4,4.6,21,10.27,21c5.67,0,10.28-4.6,10.28-10.27
				C20.55,5.06,15.95,0.45,10.27,0.45z"/>
			<path class="st2" d="M10.27,2.85c-4.35,0-7.87,3.53-7.87,7.88c0,4.34,3.53,7.87,7.87,7.87c4.35,0,7.87-3.53,7.87-7.87
				C18.15,6.38,14.62,2.85,10.27,2.85z"/>
			<path class="st9" d="M10.27,4.93c-3.2,0-5.79,2.59-5.79,5.79c0,3.2,2.6,5.79,5.79,5.79c3.2,0,5.79-2.6,5.79-5.79
				C16.07,7.53,13.47,4.93,10.27,4.93z"/>
			<polygon class="st2" points="12.18,11.41 14.12,9.55 11.45,9.18 10.27,6.75 9.1,9.18 6.43,9.55 8.37,11.41 7.9,14.07 10.27,12.8 
				12.65,14.07 			"/>
		</g>
	</g>
</g>
</svg>
