<svg id="Calque_1" data-name="Calque 1" xmlns="http://www.w3.org/2000/svg" xmlns:xlink="http://www.w3.org/1999/xlink" width="25.12" height="50.92" viewBox="0 0 25.12 50.92"><defs><style>.cls-1{fill:none;}.cls-2{fill:#fff;}.cls-3{clip-path:url(#clip-path);}.cls-4{fill:#0e559e;}.cls-5{fill:#e43433;}.cls-6{fill:#175298;}.cls-7{clip-path:url(#clip-path-3);}.cls-8{fill:#1d1d1b;}.cls-9{fill:#fccd04;}.cls-10{fill:#d02e1c;}.cls-11{fill:#d0331e;}.cls-12{clip-path:url(#clip-path-4);}.cls-13{fill:#fbcd09;}</style><clipPath id="clip-path"><path class="cls-1" d="M12.54,28.69a15.68,15.68,0,0,1-7.26-1.78v16.8l7.34-5.63,7.18,5.63V26.91a15.68,15.68,0,0,1-7.26,1.78"/></clipPath><clipPath id="clip-path-3"><path class="cls-1" d="M12.55,28.68a15.93,15.93,0,0,0,7.26-1.78V43.7l-7.18-5.63L5.29,43.7V26.9A15.68,15.68,0,0,0,12.55,28.68Z"/></clipPath><clipPath id="clip-path-4"><path class="cls-1" d="M12.52,28.68a16,16,0,0,0,2.07-.13,10.72,10.72,0,0,0,1.72-.33,16.55,16.55,0,0,0,3.47-1.32V43.7l-5.11-4L12.6,38.08l-1.51,1.16L5.27,43.7V26.9a21.42,21.42,0,0,0,5.87,1.72C11.83,28.68,12.52,28.68,12.52,28.68Z"/></clipPath></defs><path class="cls-2" d="M12.54,28.69a15.68,15.68,0,0,0,7.26-1.78v16.8l-7.18-5.63L5.28,43.71V26.91a15.68,15.68,0,0,0,7.26,1.78"/><g class="cls-3"><rect class="cls-4" x="3.01" y="23.1" width="8.13" height="24.88"/></g><g class="cls-3"><rect class="cls-5" x="14.32" y="23.1" width="8.13" height="24.88"/></g><path class="cls-6" d="M12.56,0A12.55,12.55,0,1,0,25.12,12.56,12.55,12.55,0,0,0,12.56,0h0"/><path class="cls-2" d="M12.56,2.93a9.62,9.62,0,1,0,9.62,9.63,9.62,9.62,0,0,0-9.62-9.63h0"/><path class="cls-5" d="M12.56,5.47a7.08,7.08,0,1,0,7.08,7.08h0a7.09,7.09,0,0,0-7.08-7.08"/><polygon class="cls-2" points="14.89 13.38 17.27 11.11 14.01 10.66 12.57 7.7 11.13 10.66 7.87 11.11 10.25 13.38 9.67 16.63 12.57 15.08 15.47 16.63 14.89 13.38"/><path class="cls-2" d="M12.53,28.68a15.67,15.67,0,0,0,7.25-1.78V43.7L12.6,38.07,5.27,43.7V26.9A15.68,15.68,0,0,0,12.53,28.68Z"/><g class="cls-7"><rect class="cls-8" x="3.02" y="23.09" width="8.13" height="24.88"/><rect class="cls-9" x="14.33" y="23.09" width="8.13" height="24.88"/></g><path class="cls-8" d="M12.55,0A12.55,12.55,0,1,0,25.1,12.55h0A12.56,12.56,0,0,0,12.55,0Z"/><path class="cls-10" d="M12.55,2.92a9.62,9.62,0,1,0,9.61,9.63A9.62,9.62,0,0,0,12.55,2.92Z"/><path class="cls-9" d="M12.55,5.47a7.08,7.08,0,1,0,7.07,7.09v0A7.09,7.09,0,0,0,12.55,5.47Z"/><polygon class="cls-8" points="14.88 13.38 17.25 11.1 13.99 10.65 12.55 7.69 11.12 10.65 7.85 11.1 10.23 13.38 9.65 16.62 12.55 15.07 15.45 16.62 14.88 13.38"/><polygon class="cls-10" points="14.3 39.4 14.3 28.58 12.61 38.07 14.3 39.4"/><path class="cls-11" d="M15.13,37.35c0-.08-.21-.72-.09-.32a3.88,3.88,0,0,1-.11-.49.84.84,0,0,1-.19-.43,8.9,8.9,0,0,1,0-1.46,2.65,2.65,0,0,1-.28-1.87,1.88,1.88,0,0,1,0-.33,4,4,0,0,1,0-.49,13,13,0,0,1-.18-3.05.81.81,0,0,1,.08-.34,13.61,13.61,0,0,1-1.8.12A15.78,15.78,0,0,1,9.7,28.4a3.31,3.31,0,0,1,0,2.28h0c0,.55.24,1.06.28,1.6a11.61,11.61,0,0,1-.27,3c.26,1.52.48,3,.62,4.58L12.71,38l2.66,2.09a2.13,2.13,0,0,1-.06-.87c0-.28,0-.57.1-.85v-.29A6.92,6.92,0,0,0,15.13,37.35Z"/><g class="cls-12"><rect class="cls-8" x="3.01" y="23.17" width="8.13" height="24.88"/><rect class="cls-13" x="14.08" y="26.04" width="8.13" height="24.88"/></g><path class="cls-8" d="M12.54,0A12.55,12.55,0,1,0,25.1,12.55,12.55,12.55,0,0,0,12.54,0Z"/><path class="cls-11" d="M12.54,2.92a9.62,9.62,0,1,0,9.62,9.63,9.62,9.62,0,0,0-9.62-9.63Z"/><path class="cls-13" d="M12.54,5.47a7.08,7.08,0,1,0,7.08,7.08h0A7.08,7.08,0,0,0,12.54,5.47Z"/><polygon class="cls-8" points="14.87 13.38 17.25 11.1 13.99 10.65 12.55 7.69 11.12 10.65 7.85 11.1 10.23 13.38 9.65 16.62 12.55 15.07 15.45 16.62 14.87 13.38"/></svg>